<?xml version="1.0" encoding="utf-8"?>
<!-- Generator: Adobe Illustrator 25.4.1, SVG Export Plug-In . SVG Version: 6.00 Build 0)  -->
<svg version="1.1" id="Capa_1" xmlns="http://www.w3.org/2000/svg" xmlns:xlink="http://www.w3.org/1999/xlink" x="0px" y="0px"
	 viewBox="0 0 1000 1000" style="enable-background:new 0 0 1000 1000;" xml:space="preserve">
<style type="text/css">
	.st0{fill:#FFFFFF;}
</style>
<path class="st0" d="M83,499.1c8.6-12.6,16.4-26,26.1-37.8c52.3-63.5,113.4-116.6,187.2-154c50.4-25.5,103.5-41.8,159.9-47.1
	c109.6-10.4,208.6,18.7,299.4,79.2c58.9,39.3,108,88.8,150.9,144.9c10.6,13.8,10.6,28.8,0.1,42.6
	c-49.4,64.7-107.1,120.3-177.7,161.7c-58.3,34.2-120.8,56-188.5,62.4c-98.4,9.3-189.4-13.6-273.9-63.6
	c-69.9-41.4-127.1-96.8-176-161.2c-3.2-4.2-5-9.4-7.5-14.1C83,507.8,83,503.5,83,499.1z M493,331.1c-94.9,1.8-170.6,82.4-169,179.7
	c1.6,95.2,82.4,171.2,180.2,169.3c94.5-1.8,170.8-82.9,169.1-179.8C671.6,405.1,590.8,329.3,493,331.1z"/>
<path class="st0" d="M499,411.5c51.1-0.1,93.7,41.8,93.8,92.3c0.2,53.1-42.2,95.9-94.7,95.9c-51.2,0-93.5-42.4-93.5-93.6
	C404.6,454.2,447.1,411.6,499,411.5z"/>
</svg>
